<?xml version="1.0" encoding="UTF-8"?> <svg xmlns="http://www.w3.org/2000/svg" width="704" height="200" viewBox="0 0 704 200" fill="none"> <path d="M191.41 49.3147C181.822 49.3147 174.973 53.4243 170.863 60.2736C166.754 67.1229 166.754 69.8626 166.754 80.8215V86.301H158.535V101.369H166.754V157.534H184.561V101.369H202.369V86.301H184.561V80.8215C184.561 69.8626 185.931 68.4928 191.41 65.7531C192.78 65.7531 194.15 64.3832 195.52 64.3832C196.889 64.3832 199.629 64.3832 199.629 65.7531L202.369 67.1229V53.4243H200.999C196.889 50.6846 194.15 49.3147 191.41 49.3147Z" fill="#FA4D1E"></path> <path d="M229.764 47.9453H211.957V156.164H229.764V47.9453Z" fill="#FA4D1E"></path> <path d="M280.449 84.9309C259.902 84.9309 243.465 101.369 243.465 121.917C243.465 142.465 259.902 158.904 280.449 158.904C300.996 158.904 317.434 142.465 317.434 121.917C316.064 99.9994 300.996 84.9309 280.449 84.9309ZM280.449 142.465C269.491 142.465 261.272 132.876 261.272 120.547C261.272 108.219 269.491 98.6295 280.449 98.6295C291.408 98.6295 299.626 108.219 299.626 120.547C299.626 134.246 291.408 142.465 280.449 142.465Z" fill="#FA4D1E"></path> <path d="M483.177 130.138L469.479 86.302H455.781L442.083 130.138L427.016 86.302H410.578L395.511 130.138L380.443 86.302H368.115L353.047 130.138L337.979 86.302H320.172L347.568 156.165H358.526L373.594 115.069L390.031 156.165H400.99L418.797 109.59L436.604 156.165H447.563L462.63 115.069L477.698 156.165H488.657L516.052 86.302H498.245L483.177 130.138Z" fill="#FA4D1E"></path> <path d="M555.777 84.9309C535.23 84.9309 518.793 101.369 518.793 121.917C518.793 142.465 535.23 158.904 555.777 158.904C576.324 158.904 592.762 142.465 592.762 121.917C592.762 99.9994 576.324 84.9309 555.777 84.9309ZM555.777 142.465C544.819 142.465 536.6 132.876 536.6 120.547C536.6 108.219 544.819 98.6295 555.777 98.6295C566.736 98.6295 574.954 108.219 574.954 120.547C574.954 134.246 566.736 142.465 555.777 142.465Z" fill="#FA4D1E"></path> <path d="M685.908 86.302L670.84 130.138L658.512 91.7814L655.772 86.302H643.444L642.074 91.7814L628.376 130.138L614.678 86.302H596.871L622.897 156.165H633.855L650.293 115.069L665.361 156.165H676.319L703.715 86.302H685.908Z" fill="#FA4D1E"></path> <path d="M118.812 93.1507C98.2648 97.2603 80.4573 110.959 68.1292 127.397V91.7808C85.9365 89.0411 98.2648 78.0822 105.114 60.274C110.593 45.2055 111.963 20.5479 110.593 6.84932V5.47942H109.223C98.2646 8.21915 84.5669 16.4384 77.7179 20.5479C73.6085 13.6986 65.3897 4.10959 59.9105 0C54.4314 5.47945 46.2126 13.6986 42.1032 20.5479C36.624 16.4384 21.5562 8.21915 10.5979 5.47942H9.22819V6.84932C7.8584 20.5479 9.22811 45.2055 14.7073 60.274C21.5563 78.0822 35.2542 89.0411 51.6917 91.7808V127.397C39.3635 109.589 21.5563 97.2602 2.37922 91.7808H1.00935V93.1507C-4.46983 132.877 11.9677 183.562 59.9105 200C107.853 183.562 124.291 132.877 118.812 93.1507ZM51.6917 179.452C29.775 164.384 17.447 143.836 16.0772 115.068C32.5147 124.658 51.6917 143.836 51.6917 179.452ZM68.1292 179.452C68.1292 145.205 87.3064 126.027 103.744 115.068C102.374 143.836 90.0459 164.384 68.1292 179.452ZM59.9105 78.0822C29.7751 78.0822 25.6656 50.6849 24.2958 28.7671C31.1448 32.8767 37.9937 36.9863 44.8427 45.2055L46.2126 46.5753V45.2055C50.322 35.6164 54.4312 28.7671 61.2802 23.2876C68.1292 30.1369 70.8688 35.6164 76.348 45.2055V46.5753L77.7179 45.2055C84.5669 38.3562 91.4158 32.8767 98.2648 28.7671C95.5252 50.6849 90.046 78.0822 59.9105 78.0822Z" fill="#FA4D1E"></path> </svg> 